<svg width="25" height="24" viewBox="0 0 25 24" fill="none" xmlns="http://www.w3.org/2000/svg">
<rect width="25" height="24" fill="#1E1E1E"/>
<g id="Desktop - 10" clip-path="url(#clip0_0_1)">
<rect width="1440" height="982" transform="translate(-998 -364)" fill="white"/>
<g id="Frame 1000001703">
<g id="Frame 1000001702">
<g id="Frame 1000001699">
<g id="Frame 1000001697">
<g id="Frame 1000001695">
<g id="Group 6">
<g id="edit">
<path id="Vector" d="M11.1 4H4.10001C3.56957 4 3.06087 4.21071 2.68579 4.58579C2.31072 4.96086 2.10001 5.46957 2.10001 6V20C2.10001 20.5304 2.31072 21.0391 2.68579 21.4142C3.06087 21.7893 3.56957 22 4.10001 22H18.1C18.6304 22 19.1391 21.7893 19.5142 21.4142C19.8893 21.0391 20.1 20.5304 20.1 20V13" stroke="black" stroke-width="2" stroke-linecap="round" stroke-linejoin="round"/>
<path id="Vector_2" d="M18.6 2.49998C18.9978 2.10216 19.5374 1.87866 20.1 1.87866C20.6626 1.87866 21.2022 2.10216 21.6 2.49998C21.9978 2.89781 22.2213 3.43737 22.2213 3.99998C22.2213 4.56259 21.9978 5.10216 21.6 5.49998L12.1 15L8.10001 16L9.10001 12L18.6 2.49998Z" stroke="#005AE2" stroke-width="2" stroke-linecap="round" stroke-linejoin="round"/>
</g>
<circle id="Ellipse 2" cx="12.1" cy="12" r="28" fill="#3284FF" fill-opacity="0.13"/>
</g>
</g>
</g>
</g>
</g>
</g>
</g>
<defs>
<clipPath id="clip0_0_1">
<rect width="1440" height="982" fill="white" transform="translate(-998 -364)"/>
</clipPath>
</defs>
</svg>
